<?xml version="1.0" encoding="utf-8"?>
<!-- Generator: Adobe Illustrator 24.3.0, SVG Export Plug-In . SVG Version: 6.00 Build 0)  -->
<svg version="1.1" id="Layer_1" xmlns="http://www.w3.org/2000/svg" xmlns:xlink="http://www.w3.org/1999/xlink" x="0px" y="0px"
	 viewBox="0 0 273 160.9" style="enable-background:new 0 0 273 160.9;" xml:space="preserve">
<style type="text/css">
	.st0{fill:#FFFFFF;}
</style>
<g>
	<g>
		<path class="st0" d="M0,78.8V2c0-1.3,0.5-2,2.1-2h8c1.5,0,1.9,1,2.4,2l21.3,48c0.3,0.7,1,0.7,1.4,0L56.6,2C57.1,1,57.5,0,59,0h8
			c1.6,0,2.1,0.8,2.1,2v76.8c0,1.5-0.8,2-2.1,2H55.3c-1.6,0-2.1-0.9-2.1-2V49.7c0-0.7-1-0.9-1.3-0.2L37.5,79c-0.6,1.1-1,1.9-2.4,1.9
			h-1c-1.4,0-1.8-0.8-2.4-1.9L17.3,49.6c-0.4-0.7-1.3-0.6-1.3,0.2v29.1c0,1.2-0.5,2-2.1,2H2.1C0.8,80.9,0,80.4,0,78.8z"/>
		<path class="st0" d="M83.4,78.9l22.5-77c0.5-1.4,0.9-2,2.6-2h9.6c1.7,0,2.2,0.5,2.6,2l22.5,77c0.4,1.5-0.5,2-1.6,2h-12
			c-1.3,0-2.1-0.4-2.5-1.9l-2.3-8.3c-0.3-1-0.5-1.5-1.8-1.5h-19.4c-1.3,0-1.5,0.4-1.8,1.5L99.4,79c-0.4,1.4-1.2,1.9-2.5,1.9H85
			C83.9,80.9,82.9,80.4,83.4,78.9z M118.7,54.3c0.6,0,1.1-0.3,0.9-1.1l-5.9-22.4c-0.1-0.5-0.7-0.5-0.9,0l-5.9,22.4
			c-0.2,0.8,0.3,1.1,0.9,1.1H118.7z"/>
		<path class="st0" d="M151.3,50.2V30.7c0-19.2,9-30.7,27-30.7c17.5,0,26.5,10.7,26.5,25.5c0,1-0.2,1.7-1.4,1.7h-11.9
			c-1.1,0-1.7-0.5-1.8-1.6c-0.4-6.1-2.9-10.6-11.3-10.6c-8.5,0-11.6,4.5-11.6,13.7v23.2c0,9.2,3,13.7,11.6,13.7
			c8.4,0,10.9-4.5,11.3-10.6c0.1-1.1,0.7-1.6,1.8-1.6h11.9c1.2,0,1.4,0.8,1.4,1.7c0,14.8-9.1,25.5-26.5,25.5
			C160.4,80.9,151.3,69.4,151.3,50.2z"/>
		<path class="st0" d="M219,78.8V2c0-1.3,0.5-2,2.1-2h11.7c1.3,0,2.1,0.5,2.1,2v28.7c0,1.3,0.3,1.9,2,1.9h18.3c1.3,0,2-0.3,2-1.9V2
			c0-1.2,0.4-2,2.1-2h11.5c1.4,0,2.1,0.5,2.1,2v76.8c0,1.3-0.5,2-2.1,2h-11.5c-1.4,0-2.1-0.5-2.1-2V49.3c0-1.2-0.3-1.9-2-1.9h-18.3
			c-1.3,0-2,0.2-2,1.9v29.5c0,1.2-0.5,2-2.1,2h-11.7C219.8,80.9,219,80.4,219,78.8z"/>
	</g>
	<g>
		<path class="st0" d="M270,103.9v54H3v-54H270 M271.5,100.9H1.5c-0.8,0-1.5,0.7-1.5,1.5v57c0,0.8,0.7,1.5,1.5,1.5h270
			c0.8,0,1.5-0.7,1.5-1.5v-57C273,101.6,272.3,100.9,271.5,100.9L271.5,100.9z"/>
		<g>
			<path class="st0" d="M101,128.3c-0.4-0.1-0.4,0.2-0.5,0.4c-0.8,1.9-1.6,3.8-2.4,5.7c-1.4,3.4-2.8,6.9-4.3,10.3
				c-0.2,0.5-0.4,0.8-1,0.8c-0.5,0-0.8-0.2-0.9-0.7c-0.7-1.7-1.4-3.3-2.1-5c-1.5-3.7-3.1-7.4-4.6-11c-0.1-0.2-0.1-0.6-0.5-0.6
				c-0.3,0.2-0.2,0.4-0.2,0.7c0,5.2,0,10.4,0,15.6c0,0.9-0.1,1-1,1c-0.7,0-1.5,0-2.2,0c-0.6,0-0.8-0.1-0.8-0.8c0-2.2,0-4.3,0-6.5
				c0-7,0-13.9,0-20.9c0-0.2,0-0.4,0-0.6c0-0.3,0.2-0.5,0.5-0.5c0.7,0,1.4,0,2.1,0c0.4,0,0.6,0.4,0.7,0.7c0.6,1.5,1.3,3.1,1.9,4.6
				c2.2,5.4,4.4,10.9,6.6,16.3c0.1,0.2,0.1,0.5,0.4,0.6c0.3-0.1,0.4-0.4,0.5-0.7c1.2-2.9,2.4-5.9,3.6-8.8c1.6-3.9,3.2-7.9,4.8-11.8
				c0.3-0.7,0.4-0.8,1.2-0.8c0.5,0,1,0,1.5,0c0.5,0,0.7,0.2,0.7,0.7c0,0.1,0,0.3,0,0.4c0,9,0,18.1,0,27.1c0,0.2,0,0.3,0,0.5
				c0,0.4-0.2,0.6-0.5,0.6c-1,0-1.9,0-2.9,0c-0.3,0-0.5-0.2-0.5-0.6c0-0.2,0-0.3,0-0.5c0-5.2,0-10.3,0-15.5
				C101,128.8,101.1,128.5,101,128.3z"/>
			<path class="st0" d="M253.5,145.2c-0.2,0.3-0.5,0.3-0.7,0.3c-0.8,0-1.6,0-2.4,0c-0.6,0-1-0.2-1.3-0.8c-1.6-3.2-3.2-6.4-4.7-9.6
				c-0.3-0.6-0.6-0.8-1.2-0.8c-1.1,0-2.3,0-3.4,0c-0.8,0-0.8,0.1-0.8,0.9c0,3.1,0,6.2,0,9.2c0,0.9-0.1,1-1,1c-0.7,0-1.4,0-2.1,0
				c-0.8,0-0.9-0.1-0.9-0.9c0-7.9,0-15.7,0-23.6c0-1.3,0-2.6,0-3.9c0-0.7,0.1-0.9,0.9-0.9c2.5,0,5.1,0,7.6,0c2,0,3.9,0.4,5.6,1.6
				c2.1,1.4,3.2,3.3,3.3,5.8c0.1,1.6,0.2,3.1-0.2,4.7c-0.5,2.1-1.7,3.6-3.7,4.5c-0.1,0-0.1,0.1-0.2,0.1c-0.6,0.3-0.6,0.4-0.3,1
				c1.5,3,3,6.1,4.5,9.1C252.8,143.8,253.1,144.5,253.5,145.2z M238.9,125.2c0,1.6,0,3.2,0,4.7c0,0.6,0.1,0.7,0.7,0.7
				c1.1,0,2.3,0,3.4,0c0.8,0,1.5-0.1,2.2-0.3c1.5-0.5,2.6-1.4,3-3c0.3-1.4,0.2-2.8,0-4.2c0-0.2-0.1-0.4-0.2-0.6
				c-0.7-1.6-1.9-2.3-3.5-2.6c-1.7-0.3-3.4-0.1-5.1-0.2c-0.5,0-0.6,0.1-0.6,0.7C238.9,122.1,238.9,123.7,238.9,125.2z"/>
			<path class="st0" d="M68.1,131.3c0,1.7,0,3.7,0,5.7c-0.1,1.6-0.4,3.1-1.1,4.5c-1.1,2.1-2.8,3.5-5.2,4c-2,0.5-3.9,0.5-5.9-0.1
				c-3.2-0.9-5-3.1-5.7-6.3c-0.2-1-0.3-2.1-0.3-3.2c0-3.4,0-6.8,0-10.3c0-1.7,0.2-3.4,0.9-5c1.1-2.6,3.2-4.1,5.9-4.6
				c2-0.4,3.9-0.3,5.8,0.3c3,1,4.6,3.2,5.3,6.2c0.3,1.1,0.3,2.3,0.3,3.5C68.1,127.7,68.1,129.3,68.1,131.3z M64.1,131.7
				c0-2.6,0-4.4,0-6.2c0-0.3,0-0.5,0-0.8c-0.1-0.9-0.3-1.8-0.7-2.6c-1-2.1-3.1-2.8-5.3-2.5c-2.2,0.3-3.5,1.6-4,3.7
				c-0.2,0.8-0.3,1.7-0.3,2.6c0,3.3,0,6.6,0,10c0,0.7,0.1,1.4,0.2,2.1c0.4,2.4,1.9,3.9,4.3,4.2c2.5,0.3,4.6-0.9,5.4-3.1
				c0.2-0.7,0.4-1.3,0.4-2C64.2,135,64.1,132.9,64.1,131.7z"/>
			<path class="st0" d="M164.8,130.9c0,2,0,4,0,5.9c0,1.4-0.3,2.7-0.8,4c-1.1,2.5-2.9,4-5.5,4.7c-1.9,0.5-3.9,0.4-5.8-0.1
				c-3.1-0.9-4.9-3-5.6-6c-0.2-0.9-0.4-1.8-0.4-2.8c0-3.9,0-7.9,0-11.8c0-1.6,0.4-3.2,1.1-4.6c1-2,2.6-3.3,4.7-3.9
				c2.2-0.7,4.5-0.7,6.7,0.1c3.1,1,4.7,3.3,5.4,6.5c0.2,1.1,0.3,2.2,0.3,3.2C164.8,127.7,164.8,129.3,164.8,130.9
				C164.8,130.9,164.8,130.9,164.8,130.9z M150.5,130.9c0.1,2.2-0.1,4.3,0.1,6.5c0.2,2.8,1.8,4.5,4.4,4.8c2.4,0.3,4.7-0.7,5.5-3.5
				c0.3-0.9,0.3-1.8,0.3-2.7c0-3.4,0-6.8,0-10.2c0-0.6,0-1.2-0.1-1.8c-0.4-2.5-1.8-4-4.2-4.3c-2.5-0.3-4.7,0.6-5.6,3.2
				c-0.2,0.6-0.3,1.1-0.4,1.7C150.5,126.7,150.6,128.8,150.5,130.9z"/>
			<path class="st0" d="M117.7,130.9c0-4.5,0-9.1,0-13.6c0-0.9,0.1-1,0.9-1c2.6,0,5.1,0,7.7,0c1.6,0,3.1,0.2,4.6,0.9
				c2.6,1.2,4.1,3.3,4.5,6.1c0.2,1.6,0.2,3.1,0,4.7c-0.4,3.3-2.2,5.4-5.4,6.5c-1.2,0.4-2.5,0.5-3.7,0.5c-1.2,0-2.5,0-3.7,0
				c-0.8,0-0.9,0.1-0.9,0.8c0,2.9,0,5.8,0,8.7c0,0.9-0.1,1-1,1c-0.7,0-1.4,0-2.1,0c-0.7,0-0.9-0.1-0.9-0.9
				C117.7,140.1,117.7,135.5,117.7,130.9z M124.8,131.5c0.8,0,1.9,0.1,2.9-0.1c2.4-0.4,3.8-2.1,3.8-4.5c0-0.8,0-1.6,0-2.4
				c0-2.7-1.8-4.2-4-4.5c-1.8-0.3-3.5-0.1-5.3-0.1c-0.4,0-0.6,0.2-0.6,0.6c0,3.5,0,7,0,10.4c0,0.5,0.1,0.6,0.6,0.6
				C123.1,131.5,123.8,131.5,124.8,131.5z"/>
			<path class="st0" d="M186.4,145.9c-1.8,0-3.6-0.2-5.3-1c-2.7-1.2-4.1-3.3-4.2-6.2c0-0.7,0.1-0.8,0.8-0.8c0.8,0,1.5,0,2.3,0
				c0.4,0,0.7,0.2,0.7,0.6c0.1,1.9,1.2,3.1,3,3.7c1.8,0.6,3.6,0.6,5.3,0.1c3.5-1.1,3.5-5.1,2.1-7c-0.6-0.7-1.2-1.3-2-1.7
				c-1.3-0.8-2.6-1.3-4-1.9c-1.6-0.7-3.1-1.3-4.5-2.4c-3-2.3-3.9-6.3-2.1-9.6c0.8-1.5,2.1-2.5,3.7-3c3-1,6.1-1,8.9,0.5
				c2.3,1.1,3.4,3.1,3.5,5.6c0,0.7-0.1,0.8-0.7,0.8c-0.8,0-1.5,0-2.3,0c-0.4,0-0.6-0.2-0.6-0.6c-0.2-1.7-1.2-2.7-2.7-3.3
				c-1.3-0.5-2.6-0.4-4-0.1c-3.1,0.9-3.1,4.1-1.9,5.7c0.6,0.8,1.4,1.4,2.2,1.9c1.1,0.7,2.4,1.2,3.6,1.8c1.6,0.7,3.1,1.5,4.5,2.5
				c3.3,2.4,4,6,3,9.4c-0.8,2.4-2.6,3.8-5,4.5C189.1,145.7,187.8,145.9,186.4,145.9z"/>
			<path class="st0" d="M19.5,130.9c0-1.8,0-3.7,0-5.5c0-1.6,0.3-3.1,0.9-4.6c1-2.3,2.6-3.8,5-4.4c3-0.8,5.9-0.7,8.7,0.7
				c2.3,1.2,3.5,3.1,3.8,5.6c0.1,0.4,0.1,0.8,0.1,1.2c0,0.5-0.1,0.6-0.6,0.7c-0.9,0-1.7,0-2.6,0c-0.6,0-0.7-0.1-0.7-0.6
				c-0.2-2.9-2.1-4.1-4.5-4.3c-0.9-0.1-1.7,0-2.5,0.2c-2,0.5-3.1,1.8-3.4,3.9c-0.1,0.6-0.1,1.2-0.1,1.8c0,3.6,0,7.3,0,10.9
				c0,0.9,0.1,1.8,0.3,2.6c0.5,1.5,1.5,2.5,3,2.9c1.4,0.4,2.9,0.4,4.3-0.1c1.8-0.6,2.7-1.8,2.9-3.6c0-0.2,0-0.3,0-0.5
				c0-0.3,0.2-0.5,0.6-0.5c0.9,0,1.9,0,2.8,0c0.4,0,0.5,0.2,0.5,0.6c0,2.7-1.1,5.5-4.2,7c-1.8,0.9-3.6,1.1-5.6,1
				c-1.4,0-2.7-0.3-4-0.9c-2.5-1.1-3.9-3.2-4.5-5.8c-0.3-1.1-0.4-2.2-0.3-3.3C19.5,134.3,19.5,132.6,19.5,130.9
				C19.5,130.9,19.5,130.9,19.5,130.9z"/>
			<path class="st0" d="M208.1,130.9c0-4.5,0-9,0-13.5c0-0.2,0-0.4,0-0.6c0-0.3,0.2-0.4,0.5-0.4c0.1,0,0.3,0,0.4,0
				c4.2,0,8.4,0,12.5,0c0.9,0,1,0.1,1,1c0,0.6,0,1.1,0,1.7c0,0.7-0.1,0.8-0.9,0.8c-2.8,0-5.5,0-8.3,0c-1.3,0-1.3,0-1.3,1.3
				c0,2.3,0,4.6,0,6.9c0,0.8,0.1,0.9,0.9,0.9c2.2,0,4.4,0,6.6,0c0.9,0,0.9,0.1,0.9,1c0,0.6,0,1.1,0,1.7c0,0.7-0.1,0.8-0.8,0.8
				c-2.2,0-4.3,0-6.5,0c-1.1,0-1.1,0-1.1,1.1c0,2.6,0,5.2,0,7.8c0,0.8,0,0.8,0.9,0.8c2.9,0,5.7,0,8.6,0c0.9,0,1,0.1,1,0.9
				c0,0.6,0,1.2,0,1.8c0,0.7-0.1,0.8-0.8,0.8c-1.7,0-3.4,0-5.1,0c-2.5,0-5,0-7.5,0c-0.9,0-1-0.1-1-1
				C208.1,140,208.1,135.4,208.1,130.9z"/>
		</g>
	</g>
</g>
</svg>
