<?xml version="1.0" encoding="UTF-8"?>
<svg width="96px" height="37px" viewBox="0 0 96 37" xmlns="http://www.w3.org/2000/svg" xmlns:xlink="http://www.w3.org/1999/xlink" version="1.1">
 <!-- Generated by Pixelmator Pro 1.7.1 -->
 <g id="templates">
  <g id="Extra-Large-Copy">
   <g id="HERO">
    <g id="Group-23">
     <path id="Fill-1" d="M39.421 18.749 C39.578 17.275 39.773 15.643 40 14 38.743 15.581 37.324 17.339 36 19 37.054 18.902 38.191 18.816 39.421 18.749" fill="#fefefe" fill-opacity="1" stroke="none"/>
     <g id="Group-5">
      <g id="Clip-4"/>
      <path id="Fill-3" d="M59.432 15.665 C58.208 15.89 57.051 16.93 57.013 18.92 56.915 19.155 56.433 19.854 55.113 20.831 54.716 21.125 54.312 21.393 53.933 21.626 53.963 19.201 54.929 17.406 56.886 16.14 57.665 15.636 58.468 15.301 59.173 15.079 59.231 15.272 59.315 15.468 59.432 15.665 M89.851 25.049 C89.336 25.317 83.796 23.951 76.775 24.051 76.412 25.581 76.196 27.163 76.196 28.781 76.196 33.071 76.08 32.979 75.175 32.979 74.27 32.979 71.535 30.773 71.535 29.419 71.535 27.982 71.811 26.235 72.271 24.328 69.313 24.659 66.239 25.319 63.263 26.5 63.254 26.692 63.243 26.884 63.243 27.075 63.243 31.047 64.192 32.78 62.765 32.78 60.839 32.78 58.619 29.599 58.568 28.755 56.049 30.006 56.013 29.783 55.674 29.119 55.515 28.808 55.581 28.078 55.803 27.252 54.827 27.484 53.748 27.623 52.557 27.623 51.313 27.623 50.03 26.405 49.072 24.662 49.046 24.738 49.001 24.785 48.931 24.785 48.336 24.785 46.217 24.021 43.166 23.498 43.311 25.388 43.581 26.243 43.581 27.038 43.581 28.129 39.336 26.022 39.336 23.739 39.336 23.587 39.345 23.355 39.361 23.065 38.829 23.036 38.287 23.016 37.726 23.016 35.914 23.016 34.035 23.318 32.3 23.678 32.015 24.085 31.802 24.418 31.681 24.654 31.309 25.378 30.625 26.007 30.122 26.007 29.877 26.007 29.376 25.236 28.925 24.445 28.066 24.642 27.316 24.796 26.721 24.859 26.348 26.662 26.125 28.533 26.125 30.439 26.125 31.842 21.542 30.696 21.339 28.259 21.339 27.574 22.131 23.197 23.366 18.29 19.615 23.9 15.661 29.724 15.203 30.639 15.201 30.644 15.198 30.65 15.196 30.656 15.175 30.701 15.159 30.738 15.159 30.753 15.159 30.798 15.139 30.831 15.107 30.857 14.995 31.083 14.875 31.215 14.748 31.215 13.631 31.215 10.462 28.687 10.462 27.248 10.462 25.522 11.297 21.008 12.323 16.448 L11.323 19.914 C11.323 19.914 6.755 29.103 5.25 29.103 3.745 29.103 2.225 26.687 2.225 25.88 2.227 25.234 10.358 9.147 11.279 9.147 11.537 9.147 13.032 10.379 13.716 10.695 14.648 7.136 15.513 4.446 15.882 4.446 16.661 4.446 20.203 6.489 20.203 7.28 20.203 8.071 16.458 17.862 16.458 19.624 16.458 19.659 16.457 19.702 16.457 19.743 19.429 15.012 25.701 5.202 26.614 5.202 26.959 5.202 27.414 5.284 27.885 5.424 28.696 4.063 29.53 3.229 30.354 3.229 31.607 3.229 34.716 5.365 34.716 6.72 34.716 7.644 30.715 12.83 28.174 19.801 28.649 19.673 29.221 19.539 29.888 19.403 33.177 14.181 39.777 4.784 40.832 4.784 41.194 4.784 41.587 4.957 41.971 5.229 42.441 3.624 42.953 2.589 43.491 2.589 44.316 2.589 47.679 5.202 47.679 6.723 47.679 7.763 44.723 13.786 43.549 18.113 44.361 18.097 45.197 18.086 46.07 18.086 46.382 18.086 47.039 19.141 47.661 20.413 47.587 19.892 47.547 19.368 47.547 18.851 47.547 14.695 52.149 4.678 58.346 4.678 59.872 4.678 62.961 9.956 62.961 10.921 62.961 11.887 61.855 13.097 61.377 13.097 60.897 13.097 62.626 10.775 61.403 10.775 58.645 10.775 51.1 12.66 51.1 20.436 51.1 22.613 51.799 23.707 52.467 23.707 53.135 23.707 59.238 20.444 59.238 17.717 59.238 16.143 60.322 16.994 61.239 18.369 64.271 10.937 68.889 3.495 69.62 3.495 70.866 3.495 73.952 5.727 73.952 6.99 73.952 7.995 67.173 14.291 64.403 21.462 67.261 20.679 70.482 20.019 73.703 19.491 76.626 10.959 81.613 1.649 82.902 1.649 85.065 1.649 87.258 5.456 87.258 6.283 87.258 6.858 81.903 11.845 78.645 18.781 86.055 17.863 92.404 17.731 92.825 18.555 93.817 20.495 90.738 24.587 89.851 25.049 M74.279 12.602 C74.467 12.372 74.645 12.156 74.81 11.953 74.713 12.169 74.615 12.386 74.519 12.604 73.605 14.662 72.798 16.649 72.113 18.525 71.208 18.685 70.327 18.851 69.476 19.022 71.083 16.488 72.933 14.237 74.279 12.602 M95.376 18.687 C94.547 17.065 92.641 16.757 89.415 16.757 87.793 16.757 85.77 16.856 83.545 17.04 85.247 14.414 87.045 12.293 88.229 10.897 89.545 9.344 90.091 8.7 90.091 7.585 90.091 5.924 88.504 3.794 88.186 3.385 86.671 1.431 84.948 0.399 83.205 0.399 81.421 0.399 80.168 1.939 78.478 4.782 77.931 5.702 77.352 6.757 76.763 7.902 76.614 6.594 75.718 5.297 74.093 4.043 73.223 3.371 71.524 2.244 69.923 2.244 68.495 2.244 67.566 3.094 65.599 6.198 65.178 6.863 64.738 7.592 64.291 8.366 64.007 7.891 63.759 7.511 63.626 7.311 62.417 5.503 60.758 3.427 58.649 3.427 55.757 3.427 52.931 4.962 50.505 7.805 50.42 6.416 49.537 4.962 47.875 3.476 46.783 2.501 45.189 1.338 43.795 1.338 42.509 1.338 41.469 2.086 40.694 3.567 39.579 3.743 38.625 4.614 37.173 6.388 36.748 5.474 35.961 4.581 34.821 3.722 34.125 3.198 32.325 1.979 30.657 1.979 29.323 1.979 28.131 2.627 27.033 3.953 26.994 3.952 26.956 3.951 26.918 3.951 25.52 3.951 24.62 4.808 22.764 7.348 22.351 6.458 21.452 5.617 19.963 4.694 18.36 3.7 17.089 3.196 16.186 3.196 14.32 3.196 13.605 4.931 13.336 5.585 13.097 6.168 12.818 6.981 12.508 8.004 12.503 8.021 12.497 8.039 12.492 8.056 12.208 7.953 11.916 7.897 11.582 7.897 9.903 7.897 9.019 9.26 7.603 11.671 6.541 13.481 5.315 15.775 4.475 17.381 3.437 19.361 2.369 21.472 1.543 23.171 0.075 26.192 -0 26.56 -0 27.178 -0.002 28.695 1.105 30.353 2.055 31.312 3.12 32.388 4.33 32.957 5.554 32.957 6.715 32.957 7.698 32.383 8.925 30.818 9.359 31.543 9.997 32.273 10.837 33.005 11.722 33.776 13.446 35.069 15.052 35.069 15.805 35.069 17.121 34.768 17.873 32.857 18.205 32.552 18.455 32.175 18.603 31.752 18.732 31.534 18.977 31.149 19.288 30.671 19.621 31.822 20.405 32.854 21.557 33.639 22.717 34.43 24.172 34.901 25.45 34.901 27.753 34.901 28.957 33.311 28.957 31.74 28.957 31.008 28.994 30.257 29.067 29.496 29.454 29.723 29.9 29.861 30.425 29.861 32.131 29.861 33.476 28.502 34.152 27.277 35.433 27.043 36.521 26.915 37.5 26.88 37.917 27.864 38.659 28.8 39.671 29.598 40.913 30.579 42.378 31.189 43.494 31.189 45.158 31.189 46.413 29.963 46.413 28.34 46.413 28.241 46.411 28.144 46.407 28.048 46.633 28.107 46.847 28.163 47.047 28.216 47.388 28.305 47.68 28.382 47.939 28.444 49.342 30.406 51.073 31.477 52.861 31.477 53.13 31.477 53.399 31.471 53.667 31.46 53.686 31.503 53.707 31.547 53.729 31.59 L53.752 31.635 C54.384 32.88 55.331 33.511 56.567 33.511 56.961 33.511 57.35 33.439 57.755 33.314 58.04 33.695 58.277 33.968 58.348 34.049 59.839 35.74 61.472 36.634 63.069 36.634 64.337 36.634 65.112 36.064 65.539 35.586 66.575 34.424 66.426 32.994 66.268 31.48 66.212 30.943 66.147 30.316 66.109 29.591 67.172 29.244 68.286 28.948 69.442 28.707 69.337 29.587 69.309 30.254 69.309 30.72 69.309 32.52 70.736 34.097 71.586 34.878 72.086 35.337 73.843 36.833 75.476 36.833 L75.586 36.833 C77.951 36.833 78.625 35.076 78.805 34.321 78.998 33.51 79.029 32.407 79.029 30.083 79.029 29.374 79.077 28.649 79.171 27.915 82.613 28.007 85.599 28.419 87.465 28.677 88.641 28.839 89.35 28.937 89.898 28.937 90.243 28.937 90.765 28.904 91.315 28.618 92.859 27.815 94.37 25.225 94.537 24.933 95.93 22.497 96.22 20.337 95.376 18.687" fill="#fefefe" fill-opacity="1" stroke="none"/>
     </g>
    </g>
   </g>
  </g>
 </g>
</svg>
